<svg width="10" height="15" viewBox="0 0 10 15" fill="none" xmlns="http://www.w3.org/2000/svg">
<path d="M0.785249 8.59671C0.795749 8.60546 0.809748 8.60896 0.820248 8.61771L7.57 14.727C7.94975 15.0682 8.56575 15.0682 8.9455 14.727C8.949 14.7235 8.95075 14.72 8.9525 14.7165C9.04445 14.6405 9.11872 14.5454 9.1701 14.4378C9.22149 14.3302 9.24876 14.2127 9.25 14.0935L9.25 1.87321C9.24804 1.75178 9.21944 1.63226 9.16622 1.5231C9.113 1.41394 9.03645 1.31779 8.942 1.24146L8.9455 1.23796C8.75443 1.07281 8.5103 0.981934 8.25775 0.981934C8.0052 0.981934 7.76107 1.07281 7.57 1.23796L0.785249 7.36121C0.695893 7.43744 0.624138 7.53215 0.574934 7.6388C0.52573 7.74545 0.500249 7.8615 0.500249 7.97896C0.500249 8.09641 0.52573 8.21247 0.574934 8.31912C0.624138 8.42577 0.695893 8.52048 0.785249 8.59671Z" fill="#2E88DB"/>
</svg>
