<svg width="12" height="11" viewBox="0 0 12 11" fill="none" xmlns="http://www.w3.org/2000/svg">
<path d="M2.91847 1.78494C1.95138 1.78494 1.16739 2.53113 1.16739 3.45161V7.89605C1.16739 8.81655 1.95138 9.56272 2.91847 9.56272H8.75542C9.72254 9.56272 10.5065 8.81655 10.5065 7.89605V5.95161C10.5065 5.64477 10.7678 5.39605 11.0902 5.39605C11.4126 5.39605 11.6739 5.64477 11.6739 5.95161V7.89605C11.6739 9.43016 10.3672 10.6738 8.75542 10.6738H2.91847C1.30665 10.6738 0 9.43016 0 7.89605V3.45161C0 1.91748 1.30665 0.673828 2.91847 0.673828H4.9614C5.28378 0.673828 5.5451 0.922561 5.5451 1.22938C5.5451 1.53621 5.28378 1.78494 4.9614 1.78494H2.91847Z" fill="#474444"/>
<path fill-rule="evenodd" clip-rule="evenodd" d="M9.83122 0.999267C9.37536 0.56535 8.63617 0.56535 8.1803 0.999267L5.65051 3.40712L5.26189 5.64355C5.19004 6.05699 5.56669 6.41505 6.00096 6.34605L8.34747 5.97349L10.877 3.56595C11.3329 3.13203 11.3329 2.42852 10.877 1.9946L9.83122 0.999267ZM6.53347 5.13505L6.74103 3.94047L9.00576 1.78494L10.0515 2.78027L7.78649 4.93611L6.53347 5.13505Z" fill="#474444"/>
</svg>
