<svg width="10" height="11" viewBox="0 0 10 11" fill="none" xmlns="http://www.w3.org/2000/svg">
<path fill-rule="evenodd" clip-rule="evenodd" d="M7.04156 3.02148C7.04156 1.91848 6.12592 1.02148 5 1.02148C3.87408 1.02148 2.95844 1.91848 2.95844 3.02148C2.95844 4.12448 3.87408 5.02148 5 5.02148C6.12592 5.02148 7.04156 4.12448 7.04156 3.02148ZM8.97288 10.0215H8.06234C7.78061 10.0215 7.55195 9.79748 7.55195 9.52148C7.55195 9.24548 7.78061 9.02148 8.06234 9.02148H8.28129C8.63448 9.02148 8.8953 8.67298 8.76158 8.35248C8.14349 6.87047 6.69194 6.02148 5 6.02148C3.30806 6.02148 1.85651 6.87047 1.23842 8.35248C1.1047 8.67298 1.36552 9.02148 1.71871 9.02148H1.93766C2.21939 9.02148 2.44805 9.24548 2.44805 9.52148C2.44805 9.79748 2.21939 10.0215 1.93766 10.0215H1.02712C0.389133 10.0215 -0.113091 9.44998 0.0221625 8.83948C0.393726 7.15997 1.55385 5.92047 3.08196 5.35797C2.38477 4.80847 1.93766 3.96648 1.93766 3.02148C1.93766 1.24598 3.51171 -0.169027 5.36697 0.0424728C6.71134 0.195473 7.825 1.24495 8.02661 2.55645C8.20014 3.68696 7.72803 4.71947 6.91804 5.35797C8.44615 5.92047 9.60627 7.15997 9.97784 8.83948C10.1131 9.44998 9.61087 10.0215 8.97288 10.0215ZM6.53117 9.52148C6.53117 9.79748 6.30252 10.0215 6.02078 10.0215H3.97922C3.69748 10.0215 3.46883 9.79748 3.46883 9.52148C3.46883 9.24548 3.69748 9.02148 3.97922 9.02148H6.02078C6.30252 9.02148 6.53117 9.24548 6.53117 9.52148Z" fill="#474444"/>
</svg>
