<svg width="10" height="15" viewBox="0 0 10 15" fill="none" xmlns="http://www.w3.org/2000/svg">
<path d="M9.21475 6.40329C9.20425 6.39454 9.19025 6.39104 9.17975 6.38229L2.43 0.273041C2.05025 -0.0682087 1.43425 -0.0682086 1.0545 0.273041C1.051 0.276541 1.04925 0.280041 1.0475 0.283541C0.955546 0.359465 0.881282 0.454554 0.829896 0.562162C0.77851 0.669769 0.751243 0.7873 0.749999 0.906541L0.75 13.1268C0.751962 13.2482 0.780563 13.3677 0.833784 13.4769C0.887004 13.5861 0.963545 13.6822 1.058 13.7585L1.0545 13.762C1.24557 13.9272 1.4897 14.0181 1.74225 14.0181C1.9948 14.0181 2.23893 13.9272 2.43 13.762L9.21475 7.63879C9.30411 7.56256 9.37586 7.46785 9.42507 7.3612C9.47427 7.25455 9.49975 7.1385 9.49975 7.02104C9.49975 6.90359 9.47427 6.78753 9.42507 6.68088C9.37586 6.57423 9.30411 6.47952 9.21475 6.40329Z" fill="#2E88DB"/>
</svg>
